<svg width="20" height="20" viewBox="0 0 20 20" fill="none" xmlns="http://www.w3.org/2000/svg">
<path fill-rule="evenodd" clip-rule="evenodd" d="M4.96987 11.0417H5.03078C5.64674 11.0417 6.153 11.0417 6.56258 11.0807C6.98819 11.1212 7.37348 11.208 7.72394 11.4227C8.07188 11.636 8.36441 11.9285 8.57766 12.2765C8.79241 12.6269 8.87924 13.0122 8.91974 13.4378C8.95866 13.8474 8.95866 14.3537 8.95866 14.9696V15.0306C8.95866 15.6465 8.95866 16.1527 8.91974 16.5623C8.87924 16.9879 8.79241 17.3732 8.57766 17.7237C8.36441 18.0717 8.07188 18.3642 7.72394 18.5774C7.37348 18.7922 6.98819 18.879 6.56258 18.9195C6.15301 18.9584 5.64674 18.9584 5.03079 18.9584H4.96986C4.35391 18.9584 3.84764 18.9584 3.43807 18.9195C3.01246 18.879 2.62717 18.7922 2.27671 18.5774C1.92878 18.3642 1.63624 18.0717 1.42303 17.7237C1.20827 17.3732 1.12138 16.9879 1.08092 16.5623C1.04198 16.1527 1.04198 15.6465 1.04199 15.0305V14.9697C1.04198 14.3537 1.04198 13.8474 1.08092 13.4378C1.12138 13.0122 1.20827 12.6269 1.42303 12.2765C1.63624 11.9285 1.92878 11.636 2.27671 11.4227C2.62717 11.208 3.01246 11.1212 3.43807 11.0807C3.84765 11.0417 4.35392 11.0417 4.96987 11.0417Z" fill="#7500FD"/>
<path fill-rule="evenodd" clip-rule="evenodd" d="M14.9699 11.0417H15.0307C15.6467 11.0417 16.153 11.0417 16.5626 11.0807C16.9882 11.1212 17.3735 11.208 17.7239 11.4227C18.0719 11.636 18.3644 11.9285 18.5777 12.2765C18.7924 12.6269 18.8792 13.0122 18.9197 13.4378C18.9587 13.8474 18.9587 14.3537 18.9587 14.9696V15.0306C18.9587 15.6465 18.9587 16.1527 18.9197 16.5623C18.8792 16.9879 18.7924 17.3732 18.5777 17.7237C18.3644 18.0717 18.0719 18.3642 17.7239 18.5774C17.3735 18.7922 16.9882 18.879 16.5626 18.9195C16.153 18.9584 15.6467 18.9584 15.0308 18.9584H14.9698C14.3539 18.9584 13.8477 18.9584 13.4381 18.9195C13.0125 18.879 12.6272 18.7922 12.2767 18.5774C11.9287 18.3642 11.6362 18.0717 11.423 17.7237C11.2082 17.3732 11.1214 16.9879 11.0809 16.5623C11.042 16.1527 11.042 15.6465 11.042 15.0305V14.9697C11.042 14.3537 11.042 13.8474 11.0809 13.4378C11.1214 13.0122 11.2082 12.6269 11.423 12.2765C11.6362 11.9285 11.9287 11.636 12.2767 11.4227C12.6272 11.208 13.0125 11.1212 13.4381 11.0807C13.8477 11.0417 14.3539 11.0417 14.9699 11.0417Z" fill="#7500FD"/>
<path fill-rule="evenodd" clip-rule="evenodd" d="M4.96987 1.04175H5.03078C5.64674 1.04174 6.153 1.04173 6.56258 1.08067C6.98819 1.12114 7.37348 1.20802 7.72394 1.42279C8.07188 1.636 8.36441 1.92853 8.57766 2.27646C8.79241 2.62692 8.87924 3.01221 8.91974 3.43782C8.95866 3.8474 8.95866 4.35366 8.95866 4.96961V5.03055C8.95866 5.6465 8.95866 6.15276 8.91974 6.56234C8.87924 6.98795 8.79241 7.37324 8.57766 7.7237C8.36441 8.07163 8.07188 8.36416 7.72394 8.57741C7.37348 8.79216 6.98819 8.879 6.56258 8.9195C6.15301 8.95841 5.64674 8.95841 5.03079 8.95841H4.96986C4.35391 8.95841 3.84764 8.95841 3.43807 8.9195C3.01246 8.879 2.62717 8.79216 2.27671 8.57741C1.92878 8.36416 1.63624 8.07163 1.42303 7.7237C1.20827 7.37324 1.12138 6.98795 1.08092 6.56234C1.04198 6.15276 1.04198 5.6465 1.04199 5.03054V4.96962C1.04198 4.35367 1.04198 3.84741 1.08092 3.43782C1.12138 3.01221 1.20827 2.62692 1.42303 2.27646C1.63624 1.92853 1.92878 1.636 2.27671 1.42279C2.62717 1.20802 3.01246 1.12114 3.43807 1.08067C3.84765 1.04173 4.35392 1.04174 4.96987 1.04175Z" fill="#7500FD"/>
<path fill-rule="evenodd" clip-rule="evenodd" d="M14.9699 1.04175H15.0307C15.6467 1.04174 16.153 1.04173 16.5626 1.08067C16.9882 1.12114 17.3735 1.20802 17.7239 1.42279C18.0719 1.636 18.3644 1.92853 18.5777 2.27646C18.7924 2.62692 18.8792 3.01221 18.9197 3.43782C18.9587 3.8474 18.9587 4.35366 18.9587 4.96961V5.03055C18.9587 5.6465 18.9587 6.15276 18.9197 6.56234C18.8792 6.98795 18.7924 7.37324 18.5777 7.7237C18.3644 8.07163 18.0719 8.36416 17.7239 8.57741C17.3735 8.79216 16.9882 8.879 16.5626 8.9195C16.153 8.95841 15.6467 8.95841 15.0308 8.95841H14.9698C14.3539 8.95841 13.8477 8.95841 13.4381 8.9195C13.0125 8.879 12.6272 8.79216 12.2767 8.57741C11.9287 8.36416 11.6362 8.07163 11.423 7.7237C11.2082 7.37324 11.1214 6.98795 11.0809 6.56234C11.042 6.15276 11.042 5.6465 11.042 5.03054V4.96962C11.042 4.35367 11.042 3.84741 11.0809 3.43782C11.1214 3.01221 11.2082 2.62692 11.423 2.27646C11.6362 1.92853 11.9287 1.636 12.2767 1.42279C12.6272 1.20802 13.0125 1.12114 13.4381 1.08067C13.8477 1.04173 14.3539 1.04174 14.9699 1.04175Z" fill="#7500FD"/>
</svg>
