<svg width="20" height="20" viewBox="0 0 20 20" fill="none" xmlns="http://www.w3.org/2000/svg">
<g clip-path="url(#clip0_2197_117329)">
<path d="M18.3333 0.833252H1.66668C0.747891 0.833252 0 1.58075 0 2.49993V14.1666C0 15.0858 0.747891 15.8333 1.66668 15.8333H7.50188C7.48438 16.4981 7.35742 17.5614 6.8807 18.0635C6.70574 18.2474 6.50555 18.3333 6.25 18.3333C6.19527 18.3333 6.14107 18.344 6.0905 18.3649C6.03993 18.3859 5.99398 18.4166 5.95528 18.4553C5.91658 18.494 5.88589 18.5399 5.86496 18.5905C5.84404 18.641 5.83328 18.6952 5.83332 18.75C5.83328 18.8047 5.84404 18.8589 5.86496 18.9095C5.88589 18.96 5.91658 19.006 5.95528 19.0447C5.99398 19.0834 6.03993 19.1141 6.0905 19.135C6.14107 19.1559 6.19527 19.1667 6.25 19.1667H13.75C13.8047 19.1667 13.8589 19.1559 13.9095 19.135C13.9601 19.1141 14.006 19.0834 14.0447 19.0447C14.0834 19.006 14.1141 18.96 14.135 18.9095C14.156 18.8589 14.1667 18.8047 14.1667 18.75C14.1667 18.6952 14.156 18.641 14.135 18.5905C14.1141 18.5399 14.0834 18.494 14.0447 18.4553C14.006 18.4166 13.9601 18.3859 13.9095 18.3649C13.8589 18.344 13.8047 18.3333 13.75 18.3333C13.4945 18.3333 13.2943 18.2478 13.1201 18.0639C12.6446 17.5643 12.5168 16.4994 12.4986 15.8333H18.3334C19.2521 15.8333 20 15.0858 20 14.1666V2.49993C20 1.58075 19.2521 0.833252 18.3333 0.833252ZM10 15.0024C9.53938 15.0024 9.16422 14.6272 9.16422 14.1666C9.16422 13.7059 9.53938 13.3308 10 13.3308C10.4606 13.3308 10.8358 13.7059 10.8358 14.1666C10.8358 14.6272 10.4606 15.0024 10 15.0024ZM1.66668 12.4999V2.49993H18.3334L18.3341 12.4999H1.66668Z" fill="#FF9500"/>
</g>
<defs>
<clipPath id="clip0_2197_117329">
<rect width="20" height="20" fill="white"/>
</clipPath>
</defs>
</svg>
