<svg width="20" height="20" viewBox="0 0 20 20" fill="none" xmlns="http://www.w3.org/2000/svg">
<path fill-rule="evenodd" clip-rule="evenodd" d="M4.21354 5.18288C3.69776 7.04673 4.53506 9.19789 6.23535 10.3137C7.08096 10.8686 8.4178 11.4296 9.9268 11.4579C11.4601 11.4866 13.1482 10.9627 14.6246 9.3813C14.7637 9.23222 14.8214 9.0248 14.7792 8.82539C14.737 8.62589 14.6001 8.45964 14.4126 8.37972C13.354 7.92894 12.7425 7.05374 12.1566 6.02408C12.079 5.88752 12.0001 5.7453 11.92 5.60074C11.7114 5.22446 11.4941 4.83232 11.265 4.48267C10.941 3.98813 10.5503 3.5063 10.0236 3.16062C8.22529 1.98046 5.97265 2.30414 4.80016 3.94569C6.0418 5.45093 7.36665 6.47809 8.63122 7.1632C8.93463 7.32763 9.04738 7.70696 8.88297 8.01046C8.71855 8.31395 8.33922 8.42672 8.03572 8.26225C6.75701 7.56946 5.44657 6.57448 4.21354 5.18288Z" fill="#00C7BE"/>
<path fill-rule="evenodd" clip-rule="evenodd" d="M3.04539 1.36118C2.8767 1.06002 2.49582 0.952645 2.19467 1.12134C1.89352 1.29002 1.78614 1.6709 1.95483 1.97205C2.65608 3.22395 3.41873 4.28577 4.21354 5.1828C4.28395 4.92836 4.37957 4.67928 4.50166 4.43892C4.59094 4.26313 4.69086 4.09865 4.80016 3.94561C4.18941 3.2052 3.59879 2.34912 3.04539 1.36118Z" fill="#00C7BE"/>
<path d="M3.98196 9.93855C4.34322 9.68505 4.4203 9.20064 4.15412 8.85655C3.88794 8.51255 3.3793 8.43914 3.01804 8.69264C2.40484 9.12289 1.875 9.73847 1.875 10.532V10.8335C1.875 14.1031 4.14744 16.8871 6.49492 18.4248C7.08053 18.8084 7.75641 18.9585 8.40245 18.9585H11.5975C12.2436 18.9585 12.9194 18.8084 13.505 18.4248C15.8525 16.8871 18.125 14.1031 18.125 10.8335V10.532C18.125 9.73847 17.5952 9.12289 16.9819 8.69264C16.6207 8.43914 16.112 8.51255 15.8459 8.85655C15.5797 9.20064 15.6568 9.68505 16.018 9.93855C16.4434 10.237 16.5 10.4486 16.5 10.532C16.5 10.6023 16.4638 10.7582 16.1941 10.9895C15.9247 11.2206 15.489 11.4641 14.8815 11.6846C13.6721 12.1233 11.9464 12.4108 10 12.4108C8.05358 12.4108 6.32792 12.1233 5.11848 11.6846C4.51094 11.4641 4.07532 11.2206 3.80586 10.9895C3.53621 10.7582 3.5 10.6023 3.5 10.532C3.5 10.4486 3.55667 10.237 3.98196 9.93855Z" fill="#00C7BE"/>
</svg>
