<svg width="20" height="20" viewBox="0 0 20 20" fill="none" xmlns="http://www.w3.org/2000/svg">
<g clip-path="url(#clip0_2197_117308)">
<path d="M13.1815 5.19044C13.4144 5.41901 13.4926 5.76187 13.3822 6.06901C13.3208 6.24508 13.0108 7.12008 12.4894 8.44508C12.6197 8.4683 12.7444 8.51508 12.8576 8.58365L13.5772 9.01473C13.7995 9.14828 13.9657 9.35789 14.0452 9.60469C14.1247 9.85149 14.1119 10.1187 14.0094 10.3569L13.3444 11.9115C13.3744 11.9197 13.4051 11.9301 13.4347 11.9379L17.4408 7.93294C17.7086 7.66504 17.8591 7.30175 17.8591 6.92294C17.8591 6.54413 17.7086 6.18084 17.4408 5.91294L16.9337 5.4058L14.1387 8.20222C14.0713 8.26728 13.9811 8.30328 13.8875 8.30247C13.7938 8.30165 13.7042 8.26409 13.638 8.19787C13.5718 8.13166 13.5342 8.04208 13.5334 7.94844C13.5326 7.8548 13.5686 7.76458 13.6337 7.69722L16.1769 5.15401L14.7862 3.76508L13.5487 3.94365C13.3845 3.96603 13.2174 3.95018 13.0603 3.89734C12.9033 3.84449 12.7606 3.75609 12.6433 3.63901L12.3701 3.3658C12.3064 3.30222 12.2211 3.26502 12.1312 3.26165C12.0412 3.25827 11.9534 3.28896 11.8851 3.34758C11.1915 3.95472 10.3872 5.21687 8.87402 6.22687C10.2283 6.24973 11.5469 5.47972 12.124 5.08972C12.2847 4.98137 12.4779 4.93218 12.6708 4.95055C12.8637 4.96892 13.0442 5.05371 13.1815 5.19044ZM14.7115 8.63937L16.6819 6.66937C16.7148 6.63526 16.7542 6.60805 16.7978 6.58933C16.8414 6.57061 16.8882 6.56076 16.9357 6.56035C16.9831 6.55994 17.0301 6.56897 17.074 6.58693C17.1179 6.60489 17.1578 6.63141 17.1913 6.66494C17.2248 6.69847 17.2514 6.73835 17.2693 6.78224C17.2873 6.82613 17.2963 6.87316 17.2959 6.92058C17.2955 6.968 17.2856 7.01487 17.2669 7.05844C17.2482 7.10201 17.221 7.14142 17.1869 7.17437L15.2165 9.14437C15.1836 9.17848 15.1442 9.20569 15.1006 9.2244C15.057 9.24312 15.0102 9.25297 14.9627 9.25339C14.9153 9.2538 14.8683 9.24476 14.8244 9.2268C14.7805 9.20885 14.7406 9.18233 14.7071 9.14879C14.6736 9.11526 14.647 9.07539 14.6291 9.03149C14.6111 8.9876 14.6021 8.94057 14.6025 8.89315C14.6029 8.84573 14.6128 8.79887 14.6315 8.7553C14.6502 8.71172 14.6774 8.67231 14.7115 8.63937ZM19.6433 15.1783L18.6433 14.4283C18.5106 14.3282 18.4028 14.1987 18.3285 14.05C18.2541 13.9013 18.2152 13.7374 18.2147 13.5712V13.1851C18.215 13.0949 18.1811 13.0079 18.1199 12.9417C18.0587 12.8754 17.9747 12.8348 17.8847 12.8279C17.5154 12.816 17.1458 12.8255 16.7776 12.8565C15.7575 12.9538 14.7289 12.9128 13.7197 12.7347C14.6612 13.7072 16.1365 14.0944 16.8205 14.2262C16.9937 14.2605 17.1518 14.3485 17.2723 14.4777C17.3928 14.6068 17.4696 14.7706 17.4919 14.9458C17.5143 15.121 17.4809 15.2988 17.3966 15.4541C17.3123 15.6093 17.1814 15.7341 17.0222 15.8108C16.0349 16.2823 15.0345 16.7259 14.0222 17.1412H19.6433V15.1783ZM11.0497 3.16544C11.1719 3.03651 11.2915 2.91544 11.4122 2.8108C11.6168 2.63257 11.8814 2.53861 12.1526 2.5479C12.4238 2.55718 12.6814 2.669 12.8733 2.8608L13.1465 3.13401C13.1857 3.17315 13.2334 3.20265 13.2859 3.22019C13.3384 3.23773 13.3942 3.24283 13.449 3.23508L14.1565 3.13401L11.1258 0.103653C11.0576 0.0391276 10.9672 0.00317383 10.8733 0.00317383C10.7794 0.00317383 10.689 0.0391276 10.6208 0.103653L10.2994 0.425082C10.2442 0.482584 10.2095 0.556677 10.2006 0.635894C10.1918 0.715111 10.2093 0.795035 10.2505 0.863296C10.682 1.56302 10.9548 2.34885 11.0497 3.16544Z" fill="#30B0C7"/>
<path d="M8.03148 13.8775L7.28148 13.4278C6.56363 13.8804 5.80739 14.2691 5.02148 14.5893H5.5047C5.74434 14.5957 5.98327 14.6214 6.21898 14.666C7.97434 14.9875 9.4672 16.1357 10.2279 17.75C11.1015 17.5114 11.6515 17.2946 12.024 17.1621C13.6164 16.5641 15.1825 15.8981 16.7179 15.166C16.7386 15.1569 16.7562 15.1419 16.7684 15.1228C16.7807 15.1038 16.7871 15.0816 16.7868 15.0589C16.7886 15.0279 16.7789 14.9973 16.7596 14.9729C16.7403 14.9485 16.7128 14.9319 16.6822 14.9264C15.7447 14.7457 13.4536 14.1261 12.5393 12.301C12.5161 12.2546 12.5033 12.2037 12.5018 12.1519C12.5002 12.1 12.51 12.0484 12.5304 12.0007L13.3554 10.0721C13.3893 9.99258 13.3931 9.90347 13.3662 9.82131C13.3394 9.73915 13.2836 9.66952 13.2093 9.62534L12.4897 9.19391C12.4181 9.14917 12.3327 9.13177 12.2492 9.14489C12.1658 9.15801 12.0899 9.20077 12.0354 9.26534C11.8799 9.44648 11.7214 9.62507 11.5601 9.80105L11.9711 10.0478C12.0505 10.0975 12.1072 10.1763 12.129 10.2673C12.1508 10.3584 12.136 10.4543 12.0878 10.5345C12.0396 10.6148 11.9618 10.6729 11.8712 10.6963C11.7806 10.7198 11.6844 10.7067 11.6033 10.66L11.0565 10.3321C10.8851 10.5082 10.7004 10.691 10.5029 10.881L10.8997 11.1193C10.979 11.1689 11.0357 11.2477 11.0575 11.3388C11.0794 11.4298 11.0646 11.5257 11.0164 11.606C10.9682 11.6862 10.8904 11.7443 10.7998 11.7678C10.7091 11.7912 10.6129 11.7782 10.5318 11.7314L9.95863 11.3875C9.76756 11.5589 9.56577 11.7328 9.35613 11.9071L9.82827 12.1907C9.90762 12.2403 9.9643 12.3192 9.98612 12.4102C10.0079 12.5012 9.99315 12.5972 9.94494 12.6774C9.89672 12.7576 9.81894 12.8157 9.72832 12.8392C9.63771 12.8626 9.5415 12.8496 9.46041 12.8028L8.76184 12.3871C8.49863 12.591 8.22613 12.7935 7.94041 12.9907L8.39791 13.2653C8.47726 13.315 8.53394 13.3938 8.55576 13.4848C8.57758 13.5759 8.56279 13.6718 8.51458 13.752C8.46636 13.8323 8.38858 13.8904 8.29796 13.9138C8.20735 13.9373 8.11114 13.9242 8.03006 13.8775H8.03148ZM17.9322 12.1168C18.2029 12.1355 18.4563 12.2562 18.6415 12.4545C18.8266 12.6528 18.9296 12.914 18.9297 13.1853V13.5714C18.9301 13.6835 18.9833 13.7893 19.0726 13.8571L19.644 14.2857V9.99998C19.644 9.90526 19.6064 9.81442 19.5394 9.74744C19.4724 9.68046 19.3816 9.64284 19.2868 9.64284H18.8333C18.669 9.64534 18.5268 9.75819 18.4872 9.91784C18.2975 10.7177 17.9349 11.4663 17.4251 12.111C17.6029 12.1071 17.7718 12.1071 17.9322 12.1168Z" fill="#30B0C7"/>
<path d="M6.78636 18.2139C7.70267 18.2291 8.61743 18.1332 9.51065 17.9282C9.17639 17.267 8.69394 16.6919 8.1009 16.2478C7.50786 15.8037 6.82027 15.5025 6.09172 15.3678C5.89764 15.3307 5.70098 15.3088 5.5035 15.3021C1.14636 15.3021 2.87243 15.2889 1.8085 15.355C1.72386 15.355 0.233147 15.3764 0.0267188 16.4921C0.0205662 16.5243 0.015563 16.5567 0.0117188 16.5892C0.65279 16.9689 2.86993 18.2139 4.28636 18.2139H6.78636Z" fill="#30B0C7"/>
<path d="M12.2071 17.8569C11.895 17.9709 11.6029 18.0801 11.1768 18.2141C9.76487 18.7007 8.28013 18.9423 6.78678 18.9284H4.28678C2.90964 18.9284 1.00321 17.9694 0.0478516 17.4351C0.117818 18.1338 0.443397 18.7821 0.962089 19.2554C1.48078 19.7288 2.15603 19.9939 2.85821 19.9998H18.5725C18.9514 19.9998 19.3147 19.8493 19.5826 19.5814C19.8506 19.3135 20.0011 18.9501 20.0011 18.5712V17.8569H12.2071ZM18.9296 19.2855H15.3582C15.2635 19.2855 15.1726 19.2479 15.1057 19.1809C15.0387 19.1139 15.0011 19.0231 15.0011 18.9284C15.0011 18.8336 15.0387 18.7428 15.1057 18.6758C15.1726 18.6088 15.2635 18.5712 15.3582 18.5712H18.9296C19.0244 18.5712 19.1152 18.6088 19.1822 18.6758C19.2492 18.7428 19.2868 18.8336 19.2868 18.9284C19.2868 19.0231 19.2492 19.1139 19.1822 19.1809C19.1152 19.2479 19.0244 19.2855 18.9296 19.2855ZM6.24571 12.8059C6.20461 12.7822 6.16864 12.7505 6.13991 12.7127C6.11118 12.675 6.09026 12.6319 6.07836 12.586C6.06647 12.54 6.06385 12.4922 6.07066 12.4452C6.07746 12.3983 6.09355 12.3532 6.11799 12.3125C6.14243 12.2718 6.17472 12.2364 6.21299 12.2084C6.25125 12.1804 6.29472 12.1602 6.34086 12.1492C6.387 12.1381 6.43487 12.1363 6.4817 12.144C6.52852 12.1516 6.57335 12.1685 6.61357 12.1937L7.26607 12.5866C7.55607 12.3941 7.83749 12.1966 8.10571 11.9948L7.67428 11.7359C7.63318 11.7122 7.59721 11.6805 7.56848 11.6427C7.53975 11.605 7.51883 11.5619 7.50694 11.516C7.49505 11.47 7.49243 11.4222 7.49923 11.3752C7.50603 11.3283 7.52212 11.2832 7.54656 11.2425C7.571 11.2018 7.60329 11.1664 7.64156 11.1384C7.67982 11.1104 7.7233 11.0902 7.76943 11.0792C7.81557 11.0681 7.86345 11.0663 7.91027 11.074C7.95709 11.0816 8.00192 11.0985 8.04214 11.1237L8.70714 11.5226C8.91892 11.3498 9.12142 11.1776 9.31428 11.0066L8.74285 10.6644C8.70175 10.6407 8.66578 10.6091 8.63705 10.5713C8.60832 10.5336 8.5874 10.4905 8.57551 10.4445C8.56362 10.3986 8.561 10.3508 8.5678 10.3038C8.5746 10.2569 8.59069 10.2117 8.61513 10.1711C8.63957 10.1304 8.67186 10.095 8.71013 10.067C8.7484 10.0389 8.79187 10.0188 8.838 10.0077C8.88414 9.99667 8.93202 9.99491 8.97884 10.0026C9.02566 10.0102 9.07049 10.0271 9.11071 10.0523L9.86499 10.5048C10.0544 10.3261 10.2407 10.1442 10.4239 9.95906L9.81428 9.59299C9.77318 9.56929 9.73721 9.53764 9.70848 9.49989C9.67975 9.46214 9.65883 9.41904 9.64694 9.37311C9.63505 9.32718 9.63243 9.27934 9.63923 9.23239C9.64603 9.18543 9.66212 9.14031 9.68656 9.09964C9.711 9.05898 9.74329 9.02359 9.78156 8.99554C9.81982 8.9675 9.8633 8.94735 9.90943 8.9363C9.95557 8.92524 10.0034 8.92348 10.0503 8.93113C10.0971 8.93878 10.1419 8.95568 10.1821 8.98085L10.9321 9.43014C11.5082 8.80942 11.4814 8.78978 11.6339 8.66621C12.2643 7.08585 12.6389 6.02835 12.7086 5.82942C12.717 5.80465 12.7176 5.77786 12.7101 5.75277C12.7027 5.72768 12.6876 5.70553 12.667 5.6894C12.6464 5.67327 12.6212 5.66395 12.5951 5.66273C12.569 5.66152 12.5431 5.66848 12.5211 5.68264C11.7254 6.22049 9.66892 7.40121 7.72928 6.75799C7.68004 6.74166 7.63494 6.7148 7.59713 6.67927C7.55933 6.64375 7.52971 6.60041 7.51035 6.55228L6.72821 4.60585C6.69619 4.52528 6.63595 4.45911 6.55874 4.41969C6.48153 4.38026 6.39261 4.37026 6.30857 4.39156L5.49678 4.59478C5.41471 4.61507 5.34249 4.66382 5.29299 4.73236C5.24348 4.80089 5.21989 4.88477 5.22642 4.96906C5.24428 5.17906 5.25857 5.42264 5.26964 5.68335L5.73392 5.56692C5.77944 5.55557 5.82675 5.5533 5.87314 5.56023C5.91954 5.56716 5.96411 5.58317 6.00433 5.60733C6.04454 5.63149 6.0796 5.66333 6.1075 5.70104C6.1354 5.73875 6.15561 5.78158 6.16696 5.8271C6.17831 5.87262 6.18058 5.91992 6.17365 5.96632C6.16672 6.01272 6.15071 6.05729 6.12655 6.0975C6.10239 6.13771 6.07055 6.17277 6.03284 6.20068C5.99513 6.22858 5.9523 6.24879 5.90678 6.26014L5.28535 6.41549C5.28821 6.66656 5.28642 6.92656 5.28035 7.19549L5.73392 7.08228C5.77944 7.07093 5.82675 7.06866 5.87314 7.07559C5.91954 7.08252 5.96411 7.09852 6.00433 7.12268C6.04454 7.14684 6.0796 7.17869 6.1075 7.2164C6.1354 7.2541 6.15561 7.29694 6.16696 7.34246C6.17831 7.38797 6.18058 7.43528 6.17365 7.48168C6.16672 7.52807 6.15071 7.57265 6.12655 7.61286C6.10239 7.65307 6.07055 7.68813 6.03284 7.71603C5.99513 7.74394 5.9523 7.76414 5.90678 7.77549L5.25249 7.93906C5.23749 8.21264 5.21678 8.47764 5.19535 8.73228L5.73392 8.59764C5.82494 8.57716 5.92035 8.5931 5.99976 8.64206C6.07917 8.69102 6.13627 8.7691 6.15885 8.85961C6.18143 8.95013 6.1677 9.04589 6.1206 9.12641C6.07349 9.20693 5.99675 9.26582 5.90678 9.29049L5.11178 9.48942C5.06857 9.83371 5.01607 10.168 4.95642 10.4966L5.48107 10.3655C5.57208 10.345 5.66749 10.361 5.7469 10.4099C5.82631 10.4589 5.88341 10.537 5.90599 10.6275C5.92857 10.718 5.91484 10.8137 5.86774 10.8943C5.82063 10.9748 5.74389 11.0337 5.65392 11.0584L4.79678 11.2726C4.56857 12.3126 4.21966 13.3223 3.75714 14.2812C4.7487 13.9772 5.6987 13.5514 6.58535 13.0134L6.24571 12.8059Z" fill="#30B0C7"/>
</g>
<defs>
<clipPath id="clip0_2197_117308">
<rect width="20" height="20" fill="white"/>
</clipPath>
</defs>
</svg>
