<svg width="20" height="20" viewBox="0 0 20 20" fill="none" xmlns="http://www.w3.org/2000/svg">
<path d="M14.2082 0H5.79332C5.60207 -9.59138e-08 5.41269 0.037694 5.23602 0.110928C5.05934 0.184161 4.89883 0.291498 4.76366 0.426802C4.62849 0.562106 4.52132 0.722723 4.44826 0.899473C4.3752 1.07622 4.3377 1.26564 4.33789 1.45689V18.5446C4.33789 19.3477 4.98799 20 5.79332 20H14.2082C14.5941 19.9998 14.9642 19.8464 15.2371 19.5735C15.51 19.3006 15.6634 18.9305 15.6636 18.5446V1.45689C15.6636 1.07075 15.5103 0.700407 15.2374 0.427228C14.9645 0.15405 14.5943 0.000386332 14.2082 0ZM7.92436 0.884775H12.0786C12.1835 0.884775 12.2688 1.04147 12.2688 1.23533C12.2688 1.4292 12.1835 1.58662 12.0786 1.58662H7.92436C7.81869 1.58662 7.73487 1.4292 7.73487 1.23533C7.73487 1.04147 7.81869 0.884775 7.92436 0.884775ZM10.0015 18.5621C9.75502 18.5621 9.51867 18.4642 9.34441 18.2899C9.17014 18.1156 9.07224 17.8793 9.07224 17.6328C9.07224 17.3864 9.17014 17.15 9.34441 16.9758C9.51867 16.8015 9.75502 16.7036 10.0015 16.7036C10.2479 16.7036 10.4843 16.8015 10.6585 16.9758C10.8328 17.15 10.9307 17.3864 10.9307 17.6328C10.9307 17.8793 10.8328 18.1156 10.6585 18.2899C10.4843 18.4642 10.2479 18.5621 10.0015 18.5621ZM14.5733 15.3779H5.42892V2.45828H14.5733V15.3779Z" fill="#FF3B30"/>
</svg>
