<svg width="20" height="20" viewBox="0 0 20 20" fill="none" xmlns="http://www.w3.org/2000/svg">
<path d="M9.24345 13.9941L9.59218 12.1309C9.6293 11.9304 9.61702 11.7251 9.55619 11.5292C9.49536 11.3334 9.38744 11.1516 9.23989 10.9965C9.09234 10.8415 8.90869 10.7168 8.70166 10.6311C8.49463 10.5455 8.26915 10.5009 8.04085 10.5005H2.07278C1.84433 10.5005 1.61863 10.5448 1.41137 10.6303C1.20411 10.7159 1.02026 10.8405 0.872619 10.9957C0.724977 11.1509 0.617081 11.3328 0.556435 11.5288C0.49579 11.7249 0.48385 11.9303 0.521446 12.1309L0.870183 13.9941C1.00145 14.6945 1.40759 15.3308 2.01636 15.7897C2.62513 16.2486 3.39707 16.5005 4.19486 16.5005H5.91877C6.71656 16.5005 7.4885 16.2486 8.09727 15.7897C8.70605 15.3308 9.11219 14.6945 9.24345 13.9941ZM19.1303 13.9941L19.479 12.1309C19.5162 11.9304 19.5039 11.7251 19.443 11.5292C19.3822 11.3334 19.2743 11.1516 19.1267 10.9965C18.9792 10.8415 18.7955 10.7168 18.5885 10.6311C18.3815 10.5455 18.156 10.5009 17.9277 10.5005H11.9596C11.7312 10.5005 11.5055 10.5448 11.2982 10.6303C11.091 10.7159 10.9071 10.8405 10.7595 10.9957C10.6118 11.1509 10.5039 11.3328 10.4433 11.5288C10.3826 11.7249 10.3707 11.9303 10.4083 12.1309L10.757 13.9941C10.8883 14.6945 11.2944 15.3308 11.9032 15.7897C12.512 16.2486 13.2839 16.5005 14.0817 16.5005H15.8056C16.6034 16.5005 17.3753 16.2486 17.9841 15.7897C18.5929 15.3308 18.999 14.6945 19.1303 13.9941Z" fill="#007AFF"/>
<path d="M11.0284 11.1566H8.96965C8.79612 11.1566 8.62971 11.2274 8.50701 11.3534C8.38431 11.4794 8.31538 11.6503 8.31538 11.8284C8.31538 12.0066 8.38431 12.1775 8.50701 12.3035C8.62971 12.4295 8.79612 12.5002 8.96965 12.5002H11.0284C11.2019 12.5002 11.3683 12.4295 11.491 12.3035C11.6137 12.1775 11.6827 12.0066 11.6827 11.8284C11.6827 11.6503 11.6137 11.4794 11.491 11.3534C11.3683 11.2274 11.2019 11.1566 11.0284 11.1566ZM18.4853 10.7697L17.004 4.68761C16.9486 4.45991 16.8441 4.2479 16.6982 4.06723C16.5523 3.88656 16.3687 3.74183 16.1611 3.64373C15.9534 3.54563 15.727 3.49667 15.4984 3.50045C15.2699 3.50423 15.0451 3.56065 14.8406 3.66557L14.0686 4.06148C13.991 4.10047 13.9217 4.15483 13.8647 4.22144C13.8077 4.28804 13.7642 4.36557 13.7365 4.44956C13.7088 4.53354 13.6976 4.62232 13.7035 4.71078C13.7094 4.79923 13.7323 4.88561 13.7709 4.96494C13.8094 5.04427 13.8629 5.11497 13.9282 5.17297C13.9935 5.23097 14.0694 5.27512 14.1514 5.30288C14.2334 5.33064 14.3199 5.34146 14.406 5.33471C14.4921 5.32797 14.5761 5.30379 14.653 5.26357L15.4251 4.86675C15.4543 4.85165 15.4865 4.84349 15.5192 4.84289C15.5519 4.84228 15.5844 4.84925 15.6141 4.86328C15.6438 4.8773 15.6701 4.89802 15.691 4.9239C15.7119 4.94977 15.7269 4.98014 15.7347 5.01276L17.2151 11.0957C17.2627 11.2625 17.3712 11.4039 17.5181 11.4903C17.6649 11.5768 17.8386 11.6015 18.0028 11.5593C18.167 11.5172 18.3089 11.4114 18.3988 11.2642C18.4888 11.117 18.5198 10.9398 18.4853 10.7697ZM2.78291 11.0957L4.2633 5.01276C4.27148 4.98033 4.28659 4.95018 4.30753 4.92449C4.32848 4.8988 4.35472 4.87822 4.38437 4.86424C4.41402 4.85026 4.44633 4.84324 4.47895 4.84367C4.51158 4.8441 4.5437 4.85199 4.57298 4.86675L5.34502 5.26357C5.42197 5.30379 5.50591 5.32797 5.59201 5.33471C5.67811 5.34146 5.76465 5.33064 5.84666 5.30288C5.92867 5.27512 6.00451 5.23097 6.06982 5.17297C6.13512 5.11497 6.1886 5.04427 6.22717 4.96494C6.26574 4.88561 6.28864 4.79923 6.29454 4.71078C6.30044 4.62232 6.28923 4.53354 6.26156 4.44956C6.23389 4.36557 6.1903 4.28804 6.13331 4.22144C6.07631 4.15483 6.00705 4.10047 5.92949 4.06148L5.15746 3.66557C4.95299 3.56065 4.72819 3.50423 4.49964 3.50045C4.2711 3.49667 4.04464 3.54563 3.83699 3.64373C3.62933 3.74183 3.44579 3.88656 3.29989 4.06723C3.15399 4.2479 3.04946 4.45991 2.99402 4.68761L1.51277 10.7697C1.47829 10.9398 1.50926 11.117 1.59921 11.2642C1.68915 11.4114 1.83108 11.5172 1.99527 11.5593C2.15946 11.6015 2.33316 11.5768 2.47998 11.4903C2.62681 11.4039 2.73537 11.2625 2.78291 11.0957Z" fill="#007AFF"/>
</svg>
