<svg width="20" height="20" viewBox="0 0 20 20" fill="none" xmlns="http://www.w3.org/2000/svg">
<path d="M11.9647 0.842935C11.7827 0.810967 11.5961 0.861085 11.4546 0.979835C11.3132 1.09859 11.2315 1.27382 11.2315 1.4585C11.2315 2.35298 10.5956 2.92506 9.79266 2.92506C8.91783 2.92506 8.34083 2.24139 8.34083 1.48349C8.34083 1.29854 8.25892 1.1231 8.11714 1.00435C7.97536 0.885594 7.78827 0.835735 7.60619 0.868177C7.30235 0.922319 6.68314 1.01876 6.1317 1.10281C5.85776 1.14457 5.60326 1.18286 5.41722 1.21071L5.11401 1.25593C4.9669 1.27772 4.83239 1.35125 4.73463 1.46331L1.82102 4.80318C1.60478 5.05105 1.61769 5.42412 1.85054 5.65646L3.95418 7.75554C4.17694 7.97782 4.53023 7.9998 4.77884 7.80686L5.54665 7.21097L5.74389 8.94511C5.75826 9.07144 5.86515 9.16686 5.99229 9.16686H13.6006C13.728 9.16686 13.8351 9.07094 13.8491 8.94428L14.0427 7.19342L14.8126 7.77265C15.0588 7.9579 15.4033 7.93604 15.6242 7.72115L17.7278 5.67423C17.9662 5.44233 17.9812 5.06443 17.762 4.81434L14.8482 1.48973C14.7544 1.3826 14.6267 1.31076 14.4864 1.2861L11.9647 0.842935Z" fill="#FF9500"/>
<path d="M14.7318 10.5129C14.6853 10.4518 14.6126 10.4167 14.5358 10.4167H5.05786C4.98195 10.4167 4.91015 10.4508 4.86359 10.5107C3.43557 12.3488 2.54837 15.0985 2.46605 18.108C2.46145 18.2767 2.52522 18.44 2.64288 18.5609C2.76055 18.6818 2.9221 18.7501 3.09082 18.7501H16.4712C16.6384 18.7501 16.7986 18.6831 16.9161 18.5642C17.0335 18.4452 17.0984 18.2841 17.0962 18.117C17.0623 15.4935 16.3981 13.4172 15.6262 11.9363C15.3352 11.378 15.028 10.9025 14.7318 10.5129Z" fill="#FF9500"/>
</svg>
