<svg width="20" height="20" viewBox="0 0 20 20" fill="none" xmlns="http://www.w3.org/2000/svg">
<g clip-path="url(#clip0_2197_117319)">
<path d="M14.8484 5.21208H14.212C14.1211 4.15148 13.6969 3.21208 12.9393 2.54542C12.1514 1.81814 11.1211 1.42421 10.0302 1.42421H9.96962C8.90901 1.42421 7.87871 1.81814 7.06052 2.54542C6.30295 3.21208 5.87871 4.18178 5.7878 5.21208H5.15143C5.24234 3.96966 5.75749 2.84845 6.63628 2.06057C7.54537 1.24239 8.72719 0.787842 9.96962 0.787842H10.0302C11.2726 0.787842 12.4545 1.24239 13.3636 2.06057C14.2423 2.84845 14.7575 3.96966 14.8484 5.21208ZM11.6969 10.1818H8.30295C8.12113 10.1818 7.96962 10.3333 7.96962 10.5151V12.3636C7.96962 12.5454 8.12113 12.6969 8.30295 12.6969H11.6666C11.8484 12.6969 11.9999 12.5454 11.9999 12.3636V10.5151C11.9999 10.3333 11.8484 10.1818 11.6969 10.1818ZM11.6969 10.1818H8.30295C8.12113 10.1818 7.96962 10.3333 7.96962 10.5151V12.3636C7.96962 12.5454 8.12113 12.6969 8.30295 12.6969H11.6666C11.8484 12.6969 11.9999 12.5454 11.9999 12.3636V10.5151C11.9999 10.3333 11.8484 10.1818 11.6969 10.1818ZM11.6969 10.1818H8.30295C8.12113 10.1818 7.96962 10.3333 7.96962 10.5151V12.3636C7.96962 12.5454 8.12113 12.6969 8.30295 12.6969H11.6666C11.8484 12.6969 11.9999 12.5454 11.9999 12.3636V10.5151C11.9999 10.3333 11.8484 10.1818 11.6969 10.1818ZM11.6969 10.1818H8.30295C8.12113 10.1818 7.96962 10.3333 7.96962 10.5151V12.3636C7.96962 12.5454 8.12113 12.6969 8.30295 12.6969H11.6666C11.8484 12.6969 11.9999 12.5454 11.9999 12.3636V10.5151C11.9999 10.3333 11.8484 10.1818 11.6969 10.1818ZM19.6363 15.8788L18.212 9.81815C18.0908 10.0909 17.9393 10.3636 17.7575 10.606C17.1211 11.4242 16.1514 11.8788 15.1211 11.8788H13.3333C13.1514 11.8788 12.9999 11.7272 12.9999 11.5454C12.9999 11.3636 13.1514 11.2121 13.3333 11.2121H15.1211C15.9696 11.2121 16.7272 10.8484 17.2423 10.1818C17.7575 9.51511 17.9393 8.69693 17.7575 7.87875L17.4545 6.63633C17.3333 6.18178 16.9393 5.84845 16.4545 5.84845H3.54537C3.06052 5.84845 2.66659 6.18178 2.54537 6.63633L2.27265 7.87875C2.09083 8.69693 2.27265 9.54542 2.7878 10.1818C3.30295 10.8484 4.09083 11.2121 4.90901 11.2121H6.69689C6.87871 11.2121 7.03022 11.3636 7.03022 11.5454C7.03022 11.7272 6.87871 11.8788 6.69689 11.8788H4.90901C3.87871 11.8788 2.90901 11.4242 2.27265 10.606C2.09083 10.3636 1.93931 10.0909 1.8181 9.81815L0.393858 15.8788C0.21204 16.6969 0.393858 17.5454 0.90901 18.1818C1.42416 18.8484 2.21204 19.2121 3.03022 19.2121H16.9696C17.8181 19.2121 18.5757 18.8484 19.0908 18.1818C19.6363 17.5151 19.8181 16.6969 19.6363 15.8788ZM12.6666 12.3636C12.6666 12.9091 12.2423 13.3333 11.6969 13.3333H8.30295C7.75749 13.3333 7.33325 12.9091 7.33325 12.3636V10.5151C7.33325 9.96966 7.75749 9.54542 8.30295 9.54542H11.6666C12.212 9.54542 12.6363 9.96966 12.6363 10.5151L12.6666 12.3636ZM11.6969 10.1818H8.30295C8.12113 10.1818 7.96962 10.3333 7.96962 10.5151V12.3636C7.96962 12.5454 8.12113 12.6969 8.30295 12.6969H11.6666C11.8484 12.6969 11.9999 12.5454 11.9999 12.3636V10.5151C11.9999 10.3333 11.8484 10.1818 11.6969 10.1818ZM11.6969 10.1818H8.30295C8.12113 10.1818 7.96962 10.3333 7.96962 10.5151V12.3636C7.96962 12.5454 8.12113 12.6969 8.30295 12.6969H11.6666C11.8484 12.6969 11.9999 12.5454 11.9999 12.3636V10.5151C11.9999 10.3333 11.8484 10.1818 11.6969 10.1818ZM11.6969 10.1818H8.30295C8.12113 10.1818 7.96962 10.3333 7.96962 10.5151V12.3636C7.96962 12.5454 8.12113 12.6969 8.30295 12.6969H11.6666C11.8484 12.6969 11.9999 12.5454 11.9999 12.3636V10.5151C11.9999 10.3333 11.8484 10.1818 11.6969 10.1818Z" fill="#5856D6"/>
</g>
<defs>
<clipPath id="clip0_2197_117319">
<rect width="20" height="20" fill="white"/>
</clipPath>
</defs>
</svg>
