<svg width="21" height="20" viewBox="0 0 21 20" fill="none" xmlns="http://www.w3.org/2000/svg">
<path d="M13.7873 18.9999H2.09666C1.49097 18.9999 1 18.5073 1 17.8996V15.4857C1 14.878 1.49097 14.3854 2.09666 14.3854H18.9033C19.509 14.3854 20 14.878 20 15.4857V19M20 19H15.6518M20 19V17.4907M8.68566 1H16.4614C17.3699 1 18.1064 1.73893 18.1064 2.6505V10.3272C18.1064 11.2388 17.3699 11.9777 16.4614 11.9777H4.53853C3.63 11.9777 2.89354 11.2388 2.89354 10.3272V2.6505C2.89354 1.73893 3.63 1 4.53853 1H6.82123M9.75233 16.6927H11.2477M6.59581 11.9777H14.4041V14.3854H6.59581V11.9777Z" stroke="white" stroke-miterlimit="10" stroke-linecap="round" stroke-linejoin="round"/>
<path d="M5 6.76889H10.7116M5 8H10.7116M16 6.76889H12.968M16 8H12.968M10.3356 5.38287H5.52216C5.23377 5.38287 5 5.20955 5 4.99573V4.38714C5 4.17332 5.23377 4 5.52216 4H10.3356C10.624 4 10.8578 4.17332 10.8578 4.38714V4.99573C10.8578 5.20955 10.624 5.38287 10.3356 5.38287Z" stroke="white" stroke-miterlimit="10" stroke-linecap="round" stroke-linejoin="round"/>
</svg>
