<svg width="16" height="16" viewBox="0 0 16 16" fill="none" xmlns="http://www.w3.org/2000/svg">
<path fill-rule="evenodd" clip-rule="evenodd" d="M1.33398 1.83301C1.05784 1.83301 0.833984 2.05687 0.833984 2.33301V6.83301H1.64938C2.29372 6.83301 2.81605 7.35534 2.81605 7.99967C2.81605 8.64401 2.29372 9.16634 1.64938 9.16634H0.833984V13.6663C0.833984 13.9425 1.05784 14.1663 1.33398 14.1663H14.6667C14.9429 14.1663 15.1667 13.9425 15.1667 13.6664L15.1674 9.16634H14.351C13.7067 9.16634 13.1843 8.64401 13.1843 7.99967C13.1843 7.35534 13.7067 6.83301 14.351 6.83301H15.1674L15.1667 2.33294C15.1667 2.05682 14.9429 1.83301 14.6667 1.83301H1.33398ZM6.61012 10.3331L10.3344 6.60915L9.39161 5.66634L5.66732 9.39028L6.61012 10.3331ZM7.00848 5.66634H5.66764V6.99967H7.00848V5.66634ZM10.3343 8.99967H8.99348V10.333H10.3343V8.99967Z" fill="#7500FD"/>
</svg>
